<svg width="440" height="150.99" xmlns="http://www.w3.org/2000/svg">
 <defs>
  <style>.cls-1{fill:#fff;}</style>
 </defs>
 <title>logo1</title>
 <g>
  <title>background</title>
  <rect fill="#000000" id="canvas_background" height="152.99" width="442" y="-1" x="-1"/>
 </g>
 <g>
  <title>Layer 1</title>
  <path stroke="null" id="svg_1" d="m428.371348,8.087322l0,130.805362l-415.742699,0l0,-130.805362l415.742699,0m9.628652,-8.097318l-435.000002,0l0,146.999998l435.000002,0l0,-146.999998z" class="cls-1"/>
  <path id="svg_2" d="m304.49,116.890002c0,8.95 -6.88,14.57 -15.49,14.57l-23.33,0l0,-54.29l21.33,0c8.69,0 15.65,5.8 15.65,14.78a12.64,12.64 0 0 1 -7.22,12a13.14,13.14 0 0 1 9.06,12.94zm-18.49,-31.48l-11.56,0l0,15l11.56,0a7.67,7.67 0 0 0 7.77,-7.55a7.45,7.45 0 0 0 -7.45,-7.46l-0.32,0.01zm9.91,30.44a7.73,7.73 0 0 0 -7.83,-7.61l-13.64,0l0,15l13.3,0a7.57,7.57 0 0 0 7.87,-7.25a1,1 0 0 0 0.01,-0.13l0.29,-0.01z" class="cls-1"/>
  <path id="svg_3" d="m312.27,109.290002l25.32,0l0,6.86l-25.32,0l0,-6.86z" class="cls-1"/>
  <path id="svg_4" d="m344,120.600002l7.6,-4.61a12.08,12.08 0 0 0 11.58,7.68c5.07,0 8.77,-2.62 8.77,-7.06c0,-11.49 -25.69,-7 -25.69,-25.06c0,-9.85 7.69,-15.1 16.19,-15.1a20.16,20.16 0 0 1 15.57,7.24l-6.26,5.7a11.66,11.66 0 0 0 -9.31,-4.73c-4,0 -7.32,2 -7.32,6.25c0,11.12 25.68,6.42 25.68,25.69c0,9.85 -8,15.56 -17.73,15.56a20.76,20.76 0 0 1 -19.08,-11.56z" class="cls-1"/>
  <path id="svg_5" d="m398.41,85.230002l0,15l19.26,0l0,8.21l-19.26,0l0,15l22.25,0l0,8l-31.11,0l0,-54.27l31.11,0l0,8.06l-22.25,0z" class="cls-1"/>
 </g>
</svg>