<svg id="Calque_1" data-name="Calque 1" xmlns="http://www.w3.org/2000/svg" viewBox="0 0 271 109"><defs><style>.cls-1{fill:#fff;}</style></defs><title>Sans titre - 1</title><path class="cls-1" d="M265,6v97H6V6H265m6-6H0V109H271V0Z"/><path class="cls-1" d="M178.73,87.63c0,5.45-4.19,8.87-9.43,8.87H155.09V63.44h13c5.29,0,9.53,3.53,9.53,9a7.69,7.69,0,0,1-4.4,7.33A8,8,0,0,1,178.73,87.63ZM167.49,68.46h-7.06V77.6h7.06A4.67,4.67,0,0,0,172.22,73,4.54,4.54,0,0,0,167.49,68.46ZM173.33,87a4.7,4.7,0,0,0-4.8-4.63h-8.1v9.15h8.1A4.61,4.61,0,0,0,173.33,87Z"/><path class="cls-1" d="M183.47,83h15.42v4.18H183.47Z"/><path class="cls-1" d="M202.81,89.89l4.63-2.81a7.36,7.36,0,0,0,7.05,4.68c3.09,0,5.34-1.6,5.34-4.3,0-7-15.64-4.29-15.64-15.26,0-6,4.68-9.2,9.86-9.2a12.28,12.28,0,0,1,9.48,4.41l-3.81,3.47A7.12,7.12,0,0,0,214.05,68c-2.43,0-4.46,1.22-4.46,3.81,0,6.77,15.64,3.91,15.64,15.64,0,6-4.85,9.48-10.8,9.48A12.65,12.65,0,0,1,202.81,89.89Z"/><path class="cls-1" d="M235.93,68.35v9.14h11.73v5H235.93V91.6h13.55v4.9H230.53V63.44h18.95v4.91Z"/></svg>