<svg id="Calque_1" data-name="Calque 1" xmlns="http://www.w3.org/2000/svg" viewBox="0 0 175 150.99"><defs><style>.cls-1{fill:#fff;}</style></defs><title>logo1</title><path class="cls-1" d="M348.15-25.14V134.14H-77.15V-25.14h425.3M358-35H-87V144H358Z" transform="translate(87 34.99)"/><path class="cls-1" d="M206.49,108.9c0,8.95-6.88,14.57-15.49,14.57H167.67V69.18H189c8.69,0,15.65,5.8,15.65,14.78a12.64,12.64,0,0,1-7.22,12A13.14,13.14,0,0,1,206.49,108.9ZM188,77.42H176.44v15H188a7.67,7.67,0,0,0,7.77-7.55,7.45,7.45,0,0,0-7.45-7.46Zm9.59,30.45a7.73,7.73,0,0,0-7.83-7.61H176.44v15h13.3a7.57,7.57,0,0,0,7.87-7.25A1,1,0,0,0,197.62,107.87Z" transform="translate(87 34.99)"/><path class="cls-1" d="M214.27,101.3h25.32v6.86H214.27Z" transform="translate(87 34.99)"/><path class="cls-1" d="M246,112.61l7.6-4.61a12.08,12.08,0,0,0,11.58,7.68c5.07,0,8.77-2.62,8.77-7.06,0-11.49-25.69-7-25.69-25.06,0-9.85,7.69-15.1,16.19-15.1a20.16,20.16,0,0,1,15.57,7.24l-6.26,5.7a11.66,11.66,0,0,0-9.31-4.73c-4,0-7.32,2-7.32,6.25,0,11.12,25.68,6.42,25.68,25.69,0,9.85-8,15.56-17.73,15.56A20.76,20.76,0,0,1,246,112.61Z" transform="translate(87 34.99)"/><path class="cls-1" d="M300.41,77.24v15h19.26v8.21H300.41v15h22.25v8H291.55V69.18h31.11v8.06Z" transform="translate(87 34.99)"/></svg>